<svg version="1.1" id="Layer_1" xmlns="http://www.w3.org/2000/svg" xmlns:xlink="http://www.w3.org/1999/xlink" x="0px" y="0px"
	 width="100%" viewBox="821 353 1181 842" enable-background="new 0 0 2816 1536" xml:space="preserve">

<path fill="#7F9AA6" opacity="1.000000" stroke="none" 
	d="
M915.396362,777.638611 
	C917.156494,776.447754 918.916687,775.256897 921.549438,774.652588 
	C928.452759,778.172546 934.483521,781.105896 940.411316,783.989258 
	C938.445984,790.003784 936.465271,796.065308 934.220093,802.936218 
	C938.235657,803.452148 940.785156,803.742676 943.323059,804.112732 
	C951.233948,805.266235 952.740967,806.878906 954.024902,815.461670 
	C938.792664,821.582214 924.523071,829.194458 913.097351,841.361389 
	C892.367981,863.435425 880.312988,889.445190 877.031494,919.587219 
	C874.783203,940.239258 877.613647,960.029114 886.419373,978.869995 
	C904.163147,1016.834961 942.341309,1034.058594 981.601929,1021.744812 
	C1000.048218,1015.959290 1014.605103,1004.887817 1029.662109,992.566711 
	C1040.296509,1005.658630 1051.932861,1013.207092 1069.216553,1008.062744 
	C1066.988159,1001.877319 1068.918701,997.036743 1073.823486,993.074646 
	C1075.335693,991.853027 1076.469849,990.115784 1077.622192,988.503845 
	C1086.847168,975.598938 1096.490967,962.962097 1105.090454,949.651367 
	C1112.056641,938.869019 1117.753296,927.266602 1124.498291,915.553589 
	C1131.143433,903.760803 1137.728760,892.649963 1143.373779,881.080322 
	C1154.560913,858.151489 1165.228760,834.969360 1176.794556,812.039368 
	C1185.977783,815.030762 1191.199097,821.509094 1195.943970,828.613403 
	C1197.691650,831.229919 1199.923584,833.522949 1201.934570,835.963501 
	C1200.774536,838.978882 1199.614380,841.994263 1197.667236,845.895264 
	C1196.485107,847.318787 1196.309204,847.920776 1196.352417,848.586914 
	C1185.454346,871.745850 1175.004395,895.129211 1163.545288,918.007202 
	C1149.083130,946.880920 1132.649292,974.660828 1112.667480,1000.126587 
	C1088.859741,1030.468384 1060.589111,1055.159058 1023.670593,1068.578003 
	C988.071777,1081.517578 952.249329,1082.198730 917.421509,1067.347168 
	C877.769409,1050.438354 852.286560,1020.093445 840.267090,978.584961 
	C832.146301,950.540588 831.528625,922.177979 837.070068,893.675049 
	C844.534180,855.282593 862.795105,822.651855 890.913269,795.590820 
	C896.149292,790.551697 902.312317,786.475830 909.369141,782.119751 
	C912.681335,782.324524 914.671875,782.364746 916.662415,782.404968 
	C916.240417,780.816162 915.818359,779.227417 915.396362,777.638611 
z"/>
<path fill="#99A1A0" opacity="1.000000" stroke="none" 
	d="
M1605.910156,1059.971802 
	C1596.360962,1078.564087 1582.623657,1094.001709 1567.996460,1108.523682 
	C1544.111938,1132.236450 1516.597046,1150.869873 1485.086304,1162.992798 
	C1430.090698,1184.151001 1374.883423,1185.653564 1321.078491,1160.019653 
	C1273.690430,1137.442871 1243.041748,1100.444946 1235.312256,1047.409546 
	C1233.330566,1033.812866 1235.649414,1019.589417 1236.977295,1005.236694 
	C1238.637939,1008.925781 1239.670044,1013.010376 1239.920532,1017.142395 
	C1240.601074,1028.364746 1241.129761,1039.574463 1246.041748,1050.751709 
	C1249.987671,1059.136597 1252.922241,1067.474976 1257.910400,1074.316162 
	C1291.523193,1120.416138 1344.843384,1137.548462 1399.164551,1123.596558 
	C1404.402710,1122.251343 1409.177002,1119.099731 1414.166626,1116.786621 
	C1435.620117,1110.433838 1455.447144,1100.954102 1473.883179,1086.534302 
	C1477.477661,1087.919678 1479.691650,1089.550781 1482.172363,1090.311035 
	C1490.690063,1092.921997 1499.479248,1094.742188 1507.822754,1097.797852 
	C1514.991943,1100.423462 1519.979492,1099.310791 1525.519165,1093.772949 
	C1539.445801,1079.850708 1550.959106,1064.133545 1562.601074,1048.348511 
	C1566.688721,1051.619385 1569.863403,1054.865356 1575.333862,1052.884399 
	C1576.979858,1052.288330 1579.455811,1053.978882 1581.549927,1054.626831 
	C1585.173706,1055.748169 1588.739624,1057.138672 1592.434082,1057.928467 
	C1596.869141,1058.876343 1601.413208,1059.313477 1605.910156,1059.971802 
z"/>
<path fill="#A7CBAF" opacity="1.000000" stroke="none" 
	d="
M1321.888672,469.691833 
	C1326.109497,464.597717 1330.330200,459.503601 1335.070068,453.963348 
	C1335.588989,453.517212 1335.288452,453.579529 1335.288452,453.579529 
	C1337.607056,451.234283 1339.925537,448.889038 1343.645996,446.244568 
	C1354.193726,442.951447 1362.221680,438.776093 1364.007202,428.004028 
	C1374.200806,420.778259 1384.394287,413.552521 1395.761719,406.081207 
	C1397.451416,404.971008 1397.967285,404.106384 1398.483154,403.241760 
	C1397.673584,403.440125 1396.863770,403.638489 1396.054077,403.836853 
	C1377.254639,403.487915 1358.455322,403.139008 1338.472900,402.069489 
	C1335.536255,401.517548 1333.782593,401.686188 1332.028931,401.854797 
	C1319.319092,401.800751 1306.609253,401.746674 1292.719727,400.887085 
	C1283.182861,390.745270 1283.810669,384.160004 1293.619263,376.169739 
	C1297.698853,372.846466 1301.476318,369.221649 1307.327026,369.346405 
	C1308.219604,369.365417 1309.148804,367.668396 1310.060913,366.765076 
	C1316.803467,366.946442 1323.546021,367.127808 1331.419678,367.919067 
	C1333.699951,368.384399 1334.849121,368.239807 1335.998169,368.095215 
	C1340.746948,368.411835 1345.495728,368.728455 1351.370605,369.781189 
	C1354.306763,370.450104 1356.116943,370.382904 1357.927124,370.315704 
	C1367.499146,371.251526 1377.071045,372.187317 1387.823608,373.512878 
	C1389.004150,373.902588 1389.587769,373.995514 1389.587769,373.995514 
	C1389.587769,373.995514 1390.175537,373.934631 1390.175537,373.934631 
	C1403.806641,373.924774 1417.437988,373.978882 1431.068604,373.888458 
	C1447.198364,373.781494 1462.598755,369.441681 1477.989014,365.313416 
	C1484.129150,363.666412 1488.728394,364.197296 1492.641724,369.861420 
	C1495.805786,374.441132 1499.978516,378.323944 1503.869873,382.702637 
	C1502.946045,384.500000 1502.485229,386.163422 1501.447998,387.301514 
	C1478.059448,412.963409 1464.603882,443.909790 1454.328613,476.445587 
	C1444.396729,507.894226 1438.448853,540.230042 1434.969482,572.966492 
	C1432.619263,595.079834 1431.338989,617.306702 1429.558350,639.480957 
	C1429.107422,645.095398 1428.573730,650.703186 1427.185303,657.108093 
	C1421.909302,657.260071 1418.791870,654.878784 1421.352661,650.550476 
	C1426.064209,642.586182 1423.187866,635.049683 1421.348511,627.378784 
	C1419.925659,621.445312 1418.272217,615.646118 1410.292969,615.397705 
	C1408.609497,615.345276 1406.921265,613.465332 1405.346313,612.279968 
	C1400.843262,608.891174 1396.397217,605.426697 1391.940430,601.080017 
	C1391.465210,581.414124 1395.178101,563.079590 1398.989746,544.973450 
	C1407.099854,506.447388 1420.239868,469.539246 1438.691406,434.652313 
	C1442.078735,428.247620 1445.956055,422.102173 1449.478271,416.058411 
	C1443.736694,409.465149 1443.712280,409.412842 1436.750854,412.663940 
	C1411.842896,424.296509 1389.297852,439.624207 1370.168701,459.215485 
	C1355.836182,473.894226 1343.310547,490.337372 1329.222290,506.036743 
	C1327.482788,506.231842 1326.499268,506.373291 1325.520386,506.540161 
	C1316.903687,508.008972 1312.770264,504.063690 1314.591187,495.768585 
	C1315.218628,492.910187 1315.961182,489.322479 1317.969238,487.661713 
	C1324.243164,482.473145 1323.533447,476.308868 1321.888672,469.691833 
M1427.053833,647.008850 
	C1427.053833,647.008850 1426.995361,646.930237 1427.053833,647.008850 
z"/>
<path fill="#93B6B1" opacity="1.000000" stroke="none" 
	d="
M1160.381958,450.119751 
	C1150.763184,461.772491 1142.929565,474.400970 1139.596924,489.352203 
	C1135.716309,506.761993 1137.231812,523.197632 1149.538452,537.208496 
	C1162.358398,551.803650 1178.784668,553.579285 1194.777344,542.413330 
	C1195.835327,541.674622 1197.035767,541.140076 1198.991089,540.054932 
	C1204.118530,552.812622 1201.768188,564.451904 1195.822388,575.412598 
	C1184.583984,596.129822 1162.877441,604.205688 1139.633057,601.017700 
	C1111.919678,597.216675 1093.844604,580.321716 1084.085571,555.049255 
	C1071.656250,522.861511 1076.705688,491.623718 1092.504028,461.719299 
	C1108.438232,431.557831 1132.646729,409.925262 1163.420898,395.011932 
	C1164.545410,396.567444 1164.667358,398.055939 1165.284180,398.301605 
	C1170.377319,400.329956 1175.955566,401.492828 1177.397461,408.206940 
	C1177.608643,409.191010 1180.270874,409.492371 1181.548218,410.445831 
	C1182.957764,411.497955 1184.078125,412.937500 1185.376831,414.261810 
	C1174.867676,422.643494 1174.866699,422.723602 1164.193115,422.596893 
	C1160.463989,422.552612 1159.019287,424.494049 1158.118164,427.742462 
	C1156.983032,431.835052 1155.605347,435.877716 1154.058960,439.835114 
	C1151.267212,446.979156 1151.780396,447.922577 1160.381958,450.119751 
z"/>
<path fill="#A5C8AF" opacity="1.000000" stroke="none" 
	d="
M1485.488037,762.865112 
	C1499.348267,742.756531 1517.941772,727.791199 1538.331543,714.957275 
	C1568.854858,695.744934 1601.990845,683.281799 1637.676880,677.724487 
	C1639.974243,677.366699 1642.241333,676.814819 1645.723022,676.750610 
	C1648.640015,676.674561 1650.356689,676.201172 1652.073242,675.727844 
	C1664.225952,674.470520 1676.361206,672.385376 1688.535034,672.128479 
	C1713.712402,671.597168 1738.910156,672.039185 1765.024292,673.044312 
	C1765.696167,680.821899 1764.267578,687.348511 1767.222900,694.404419 
	C1769.748657,700.435181 1768.496338,707.479858 1763.799561,713.185852 
	C1762.173584,715.161133 1761.262207,717.724670 1759.144409,720.016602 
	C1754.152344,720.066956 1750.040527,720.120300 1744.996094,720.151489 
	C1730.075439,720.100098 1716.067017,719.582703 1702.104492,720.165771 
	C1684.877075,720.885193 1667.662964,722.255859 1650.491699,723.863281 
	C1640.921143,724.759155 1631.449219,726.707397 1621.224487,728.437134 
	C1593.198364,735.032471 1567.156250,744.542725 1543.722900,760.256409 
	C1538.815308,763.547302 1534.537354,767.777161 1529.302734,771.769287 
	C1525.163208,774.226501 1521.690308,776.488831 1517.674316,778.191589 
	C1510.807007,775.124023 1503.258789,775.631958 1498.236694,769.796631 
	C1497.568237,769.019958 1495.719604,768.797852 1494.537231,769.004639 
	C1489.428467,769.898010 1487.456909,766.441956 1485.488037,762.865112 
z"/>
<path fill="#85A1A9" opacity="1.000000" stroke="none" 
	d="
M1302.515991,839.793335 
	C1286.902466,825.364746 1272.024048,810.028015 1255.535278,796.680542 
	C1209.179077,759.155701 1157.573120,731.458923 1098.987549,718.327087 
	C1055.135376,708.497620 1011.188477,708.052124 967.755066,720.964050 
	C958.268860,723.783997 949.358337,728.537659 940.176880,732.386780 
	C937.433655,733.536743 934.692566,735.465820 931.910522,735.540100 
	C928.883484,735.620972 925.145630,734.745605 922.918640,732.864929 
	C919.880981,730.299561 921.901306,726.667908 923.617676,723.790405 
	C930.024780,713.048584 939.011108,704.669617 948.691650,696.987305 
	C951.025635,695.135132 953.710388,693.725098 957.599854,692.261230 
	C967.925293,697.857178 977.337769,699.217346 987.490173,696.129333 
	C990.590027,695.186401 994.022888,695.302551 997.310791,695.022461 
	C1002.510742,694.579468 1007.888489,694.899231 1012.881470,693.654541 
	C1020.859192,691.665588 1028.478271,688.258850 1036.437500,686.169983 
	C1050.429321,682.497986 1064.864380,683.107361 1078.954712,684.574646 
	C1101.656372,686.938660 1124.162109,690.997498 1146.673096,698.298950 
	C1176.126099,707.938293 1204.285400,718.950562 1229.885986,735.188232 
	C1251.106689,748.647949 1271.336182,763.670105 1292.325684,778.556213 
	C1295.097656,782.069763 1297.548950,785.027161 1300.053589,788.795898 
	C1301.404297,796.684204 1303.499268,803.728577 1303.789917,810.846680 
	C1304.127808,819.118591 1304.197754,827.172729 1310.121338,834.794922 
	C1307.238525,836.689636 1304.877197,838.241516 1302.515991,839.793335 
z"/>
<path fill="#AED2B2" opacity="1.000000" stroke="none" 
	d="
M1594.067505,437.731445 
	C1609.402954,437.605255 1624.738403,437.479065 1641.351318,438.114014 
	C1646.339478,443.156952 1649.390381,441.904694 1652.094727,437.746338 
	C1654.190918,437.612885 1656.287109,437.479492 1659.396729,438.212097 
	C1661.061768,439.804871 1661.574341,440.881256 1662.386719,441.204773 
	C1671.592285,444.871124 1680.720581,448.801697 1690.129517,451.861938 
	C1695.782471,453.700653 1696.659546,458.037140 1697.509644,462.514160 
	C1698.560303,468.046417 1693.500000,467.447449 1690.484619,468.877350 
	C1689.985474,469.114105 1689.739868,469.885834 1689.777954,469.830872 
	C1690.542725,475.527557 1691.236328,480.694519 1690.997437,485.884277 
	C1679.786865,485.930298 1669.508789,485.966156 1659.230835,485.972992 
	C1649.284302,485.979614 1639.332397,485.748016 1629.392700,486.004425 
	C1619.307495,486.264618 1609.088379,484.813812 1598.285522,487.150574 
	C1598.391602,518.713684 1597.005127,549.461243 1599.588257,581.046997 
	C1599.394165,586.495483 1599.223877,591.087158 1598.407715,595.887939 
	C1596.584595,597.529480 1594.692505,598.814941 1594.362061,600.421631 
	C1593.305176,605.560059 1592.827148,610.817566 1591.448853,615.892090 
	C1587.230957,612.749878 1583.690063,609.744751 1579.749268,606.400208 
	C1576.305420,612.702209 1572.380005,618.001282 1565.526489,614.416016 
	C1559.997559,611.523804 1556.238403,613.872437 1551.929443,615.203735 
	C1551.892334,579.613525 1551.869141,544.969849 1551.860962,510.326233 
	C1551.856323,491.005737 1551.816772,471.684998 1551.910400,452.364899 
	C1551.957397,442.667236 1552.599243,442.050598 1561.987427,441.921906 
	C1569.980591,441.812317 1577.976440,441.898712 1585.971191,441.899841 
	C1589.386475,441.900330 1592.777588,441.857483 1594.067505,437.731445 
z"/>
<path fill="#9FAEA4" opacity="1.000000" stroke="none" 
	d="
M1606.472656,1059.582031 
	C1601.413208,1059.313477 1596.869141,1058.876343 1592.434082,1057.928467 
	C1588.739624,1057.138672 1585.173706,1055.748169 1581.549927,1054.626831 
	C1579.455811,1053.978882 1576.979858,1052.288330 1575.333862,1052.884399 
	C1569.863403,1054.865356 1566.688721,1051.619385 1562.901123,1047.719360 
	C1567.054199,1036.472656 1571.492554,1026.210938 1576.236938,1015.298645 
	C1582.527222,1001.273926 1586.989746,987.438110 1590.040894,973.079041 
	C1596.703125,941.725037 1598.719116,910.024902 1597.916260,877.128052 
	C1597.974976,864.127563 1597.993164,852.069885 1598.789307,840.153076 
	C1605.063477,841.467651 1610.515259,842.958252 1616.067139,843.731323 
	C1622.418213,844.615662 1624.514893,843.240967 1625.886108,837.014038 
	C1627.489258,829.733093 1632.900024,825.861450 1639.234619,819.453003 
	C1641.043457,839.597778 1638.982788,857.849792 1642.009766,875.897461 
	C1643.624878,872.923340 1643.953979,869.897766 1643.988892,866.868774 
	C1644.032349,863.104004 1645.374023,860.461060 1649.303467,859.630859 
	C1649.368530,875.884827 1649.433716,892.138855 1648.984863,909.885254 
	C1648.371338,913.063782 1648.271729,914.749878 1648.172119,916.436035 
	C1646.407715,932.603394 1644.643311,948.770813 1642.422852,965.943787 
	C1641.967041,966.949402 1641.896240,967.602722 1641.896240,967.602722 
	C1641.859497,968.624634 1641.822754,969.646606 1641.235107,971.734253 
	C1640.369995,973.319763 1640.202881,973.883057 1640.182373,974.489929 
	C1639.020264,980.308228 1638.498535,986.346985 1636.584717,991.906494 
	C1628.590088,1015.131409 1620.222290,1038.232178 1606.472656,1059.582031 
M1640.142822,906.854187 
	C1640.368530,913.840454 1638.949463,920.965576 1642.020630,927.769714 
	C1644.566528,920.021423 1644.830933,912.234802 1642.750366,904.363403 
	C1641.978760,904.711609 1641.207275,905.059814 1640.142822,906.854187 
z"/>
<path fill="#849294" opacity="1.000000" stroke="none" 
	d="
M1599.612061,580.190308 
	C1597.005127,549.461243 1598.391602,518.713684 1598.285522,487.150574 
	C1609.088379,484.813812 1619.307495,486.264618 1629.392700,486.004425 
	C1639.332397,485.748016 1649.284302,485.979614 1659.230835,485.972992 
	C1669.508789,485.966156 1679.786865,485.930298 1691.831909,485.951111 
	C1697.861328,485.562195 1702.131226,484.699677 1706.384399,484.775360 
	C1720.252197,485.022217 1734.113770,485.611542 1748.768799,486.092285 
	C1751.663940,486.162689 1753.768311,486.209930 1755.908569,487.002258 
	C1755.573608,492.996338 1759.462036,495.815063 1762.239380,499.451141 
	C1769.215698,508.584503 1771.888672,517.052979 1764.351807,525.048462 
	C1762.052124,527.487976 1761.464233,531.541077 1760.092529,534.855225 
	C1756.465210,535.059143 1752.838013,535.436890 1749.210571,535.439697 
	C1718.992676,535.463074 1688.774414,535.350037 1658.557129,535.486267 
	C1655.152588,535.501648 1649.913452,533.278687 1648.974854,541.053101 
	C1646.325317,543.939758 1647.281860,545.068481 1649.259277,545.940063 
	C1649.414551,548.758240 1649.569702,551.576355 1648.827393,555.304810 
	C1642.265991,560.691406 1642.621460,563.208496 1649.306519,565.964905 
	C1649.434937,566.876526 1649.563354,567.788086 1648.743164,569.484863 
	C1643.276855,571.481018 1644.067139,575.245300 1644.029785,578.440063 
	C1643.916504,588.099548 1644.038574,597.762390 1643.865479,607.420227 
	C1643.837646,608.975586 1642.768555,610.512268 1642.180786,612.057617 
	C1640.330811,608.525269 1640.047119,605.278809 1640.035889,602.031372 
	C1639.984253,587.040710 1640.079346,572.049072 1639.939941,557.059509 
	C1639.914795,554.358704 1641.198120,550.904053 1636.708984,549.072632 
	C1634.977661,550.679199 1632.343872,552.086914 1631.336060,554.251709 
	C1628.208130,560.970093 1622.826904,565.103149 1616.813477,568.828979 
	C1614.864014,570.036926 1613.467529,572.131775 1611.526245,573.360168 
	C1607.661865,575.805847 1603.595215,577.932129 1599.612061,580.190308 
z"/>
<path fill="#85A4AE" opacity="1.000000" stroke="none" 
	d="
M954.852905,815.441284 
	C952.740967,806.878906 951.233948,805.266235 943.323059,804.112732 
	C940.785156,803.742676 938.235657,803.452148 934.220093,802.936218 
	C936.465271,796.065308 938.445984,790.003784 940.411316,783.989258 
	C934.483521,781.105896 928.452759,778.172546 922.193848,774.568359 
	C932.453735,766.638489 944.321106,762.841309 957.815063,760.096375 
	C959.864929,759.897644 960.706909,759.697815 961.548950,759.497925 
	C963.166382,759.034302 964.783813,758.570618 967.754395,758.571533 
	C972.374207,760.313599 975.507385,760.766479 978.051941,757.586792 
	C982.784119,757.444641 987.516296,757.302490 993.385864,757.838196 
	C996.312195,758.463196 998.101135,758.410339 999.890076,758.357483 
	C1034.048340,762.133240 1055.924072,779.974670 1063.611328,808.354492 
	C1069.402222,829.732727 1062.373535,853.063538 1044.974609,866.605591 
	C1032.954468,875.961243 1019.416748,878.426392 1003.757141,874.047241 
	C1004.939209,871.543396 1005.377319,869.104858 1006.829895,867.771179 
	C1021.936707,853.901428 1013.368835,824.363525 993.777771,817.639465 
	C987.000244,815.313232 979.645569,814.156921 972.471985,813.661316 
	C966.941895,813.279236 961.282715,814.765381 954.852905,815.441284 
z"/>
<path fill="#849294" opacity="1.000000" stroke="none" 
	d="
M1245.980591,1050.012451 
	C1241.129761,1039.574463 1240.601074,1028.364746 1239.920532,1017.142395 
	C1239.670044,1013.010376 1238.637939,1008.925781 1237.305786,1004.468628 
	C1242.221924,974.707947 1264.315918,950.648987 1290.796021,945.566345 
	C1317.322021,940.474854 1351.104126,954.909302 1355.600342,993.005371 
	C1356.795532,1003.133240 1353.819946,1012.574463 1347.874878,1021.543823 
	C1344.676880,1020.509155 1341.937256,1019.520569 1339.140503,1018.735107 
	C1325.130005,1014.800232 1312.407715,1020.125427 1304.501343,1033.562744 
	C1302.518677,1036.932495 1301.502563,1040.870972 1298.960205,1045.255493 
	C1289.755249,1046.168091 1280.637695,1044.145996 1277.826172,1056.447510 
	C1273.450073,1054.337646 1269.344360,1053.335938 1266.594360,1050.840210 
	C1259.693970,1044.578003 1253.053955,1045.161865 1245.980591,1050.012451 
z"/>
<path fill="#9CB8AD" opacity="1.000000" stroke="none" 
	d="
M1484.882080,763.210693 
	C1487.456909,766.441956 1489.428467,769.898010 1494.537231,769.004639 
	C1495.719604,768.797852 1497.568237,769.019958 1498.236694,769.796631 
	C1503.258789,775.631958 1510.807007,775.124023 1517.483765,778.781128 
	C1515.250366,782.936462 1512.435669,785.777222 1510.119873,788.978699 
	C1501.767578,800.525818 1492.053589,811.414612 1485.648438,823.976807 
	C1471.593628,851.541748 1466.656860,881.106628 1471.224121,912.120605 
	C1467.950562,914.250732 1465.516113,916.516113 1462.709351,918.136719 
	C1459.979370,919.712952 1456.452271,922.177917 1454.008057,921.522034 
	C1448.374756,920.010376 1444.481201,922.424011 1441.515747,924.561646 
	C1435.564209,923.581238 1430.779663,922.793030 1425.686401,921.396545 
	C1423.591919,917.175964 1421.806274,913.563660 1419.989990,909.189941 
	C1417.880127,901.803955 1415.773682,895.187744 1413.727173,888.553101 
	C1409.144165,873.695679 1404.591064,858.829041 1400.023315,843.104370 
	C1397.361084,826.825562 1394.701538,811.408508 1392.802612,796.137695 
	C1402.821411,799.575500 1412.349731,802.277832 1421.246582,806.357056 
	C1427.618164,809.278442 1433.144287,814.043701 1439.047729,817.986328 
	C1441.108032,827.942017 1443.168213,837.897705 1445.228516,847.853455 
	C1445.690796,847.985962 1446.153076,848.118469 1446.615356,848.250977 
	C1449.051270,838.460999 1450.807861,828.434631 1454.109741,818.946045 
	C1457.567627,809.009644 1461.910889,799.261169 1466.971680,790.036499 
	C1472.028198,780.819336 1478.451904,772.352234 1484.882080,763.210693 
z"/>
<path fill="#849294" opacity="1.000000" stroke="none" 
	d="
M1420.020508,909.951416 
	C1421.806274,913.563660 1423.591919,917.175964 1425.808594,922.109619 
	C1433.116333,937.059021 1439.629639,950.887695 1447.002319,964.242065 
	C1451.632446,972.629211 1457.720825,980.197876 1462.856689,988.322327 
	C1472.238037,1003.161804 1485.197632,1014.593933 1498.147217,1026.063477 
	C1492.425415,1038.911499 1483.300537,1049.222900 1474.018066,1059.859863 
	C1454.866333,1047.447021 1438.338257,1033.264404 1424.362793,1016.318848 
	C1407.640381,996.042664 1394.262939,973.527405 1381.808105,948.899902 
	C1381.448853,944.463135 1381.753296,941.301819 1380.689453,938.700012 
	C1376.729126,929.014832 1372.319458,919.513489 1368.877930,909.961670 
	C1374.023804,911.249329 1378.447998,912.304077 1382.693726,913.849426 
	C1386.709106,915.310852 1390.428711,917.616455 1394.475830,918.951965 
	C1399.248535,920.526917 1404.234619,921.006897 1408.759155,917.940063 
	C1412.568115,915.358398 1416.270752,912.620239 1420.020508,909.951416 
z"/>
<path fill="#93B6B1" opacity="1.000000" stroke="none" 
	d="
M1827.991821,437.763916 
	C1829.294800,437.555664 1830.597900,437.164398 1831.900757,437.165527 
	C1883.359497,437.210541 1934.818115,437.291199 1987.167236,438.363739 
	C1988.046509,440.212036 1988.035156,441.063812 1988.023926,441.915588 
	C1979.396606,457.130310 1970.769165,472.344971 1960.788208,487.876526 
	C1946.249146,484.040192 1932.651001,486.979126 1919.299805,486.415771 
	C1888.909302,485.133423 1858.425659,486.056519 1827.312012,486.064545 
	C1825.753540,486.025238 1824.862915,486.004700 1824.019653,485.263184 
	C1826.903809,480.826599 1829.740479,477.110992 1832.933350,472.928894 
	C1828.960693,468.498169 1826.286377,463.625671 1832.698120,458.254059 
	C1833.591064,457.505920 1832.413330,454.023132 1831.876953,451.885864 
	C1830.688843,447.151703 1829.299316,442.468109 1827.991821,437.763916 
z"/>
<path fill="#828F90" opacity="1.000000" stroke="none" 
	d="
M1597.875732,878.070923 
	C1598.719116,910.024902 1596.703125,941.725037 1590.040894,973.079041 
	C1586.989746,987.438110 1582.527222,1001.273926 1575.488525,1015.175903 
	C1571.221558,1015.578979 1568.005005,1015.515747 1564.796997,1015.316528 
	C1558.630859,1014.933594 1552.413696,1014.823853 1546.336060,1013.856934 
	C1544.188843,1013.515381 1541.100952,1011.297729 1540.671021,1009.424927 
	C1539.428711,1004.015320 1535.269531,1001.357056 1531.838257,997.928955 
	C1534.597900,986.048584 1537.630127,974.223022 1540.031372,962.270630 
	C1541.971313,952.613525 1543.796143,942.851685 1544.525146,933.050903 
	C1545.798828,915.929138 1546.190674,898.741760 1548.039429,880.773010 
	C1556.984497,876.851929 1564.839478,875.674011 1572.464478,880.512329 
	C1579.163940,884.763489 1584.750610,884.144531 1588.678833,876.822937 
	C1592.074585,877.283752 1594.975220,877.677307 1597.875732,878.070923 
z"/>
<path fill="#97B8AE" opacity="1.000000" stroke="none" 
	d="
M1292.004883,778.000000 
	C1271.336182,763.670105 1251.106689,748.647949 1229.885986,735.188232 
	C1204.285400,718.950562 1176.126099,707.938293 1146.665283,697.458984 
	C1145.183716,691.103027 1145.471191,685.350586 1143.254272,680.825073 
	C1141.192505,676.616455 1136.461792,673.715271 1132.430298,669.773132 
	C1134.496338,668.815369 1135.804932,668.465027 1136.778564,667.692566 
	C1138.000854,666.722778 1138.948853,665.407166 1140.015259,664.240845 
	C1156.212402,665.511597 1171.441650,670.545105 1186.533691,676.147095 
	C1190.515381,677.625000 1194.580444,678.878235 1199.738159,680.905640 
	C1209.453735,688.204468 1219.696167,690.993164 1230.216064,694.633179 
	C1239.377319,699.513062 1248.134644,703.835205 1257.289551,708.746338 
	C1261.180908,711.818054 1264.726562,714.231445 1268.159180,716.795898 
	C1281.906006,727.066101 1295.617920,737.383057 1308.896973,748.381104 
	C1299.936646,756.646057 1291.146729,764.055420 1292.589600,777.242065 
	C1292.614624,777.470642 1292.209351,777.746338 1292.004883,778.000000 
z"/>
<path fill="#94A49F" opacity="1.000000" stroke="none" 
	d="
M1621.932861,728.181396 
	C1631.449219,726.707397 1640.921143,724.759155 1650.491699,723.863281 
	C1667.662964,722.255859 1684.877075,720.885193 1702.104492,720.165771 
	C1716.067017,719.582703 1730.075439,720.100098 1745.013428,721.018433 
	C1746.641235,729.503723 1747.547607,737.088196 1747.939575,744.699097 
	C1748.450806,754.623413 1753.460327,759.647156 1763.544556,759.628052 
	C1765.092773,759.625122 1766.640259,759.255554 1768.447266,759.022095 
	C1766.795532,762.863953 1765.422974,766.056396 1764.050537,769.248840 
	C1750.828857,769.453613 1737.607788,769.756531 1724.385376,769.838989 
	C1706.840698,769.948425 1689.295044,769.885803 1670.174927,769.370789 
	C1663.537842,767.806702 1658.467163,766.686218 1653.876587,770.328308 
	C1649.625732,770.883789 1645.374878,771.439331 1640.338867,771.035034 
	C1639.872314,762.126038 1634.308350,757.160828 1629.124878,753.136353 
	C1623.724976,748.943787 1621.464600,744.548523 1621.954590,738.072510 
	C1622.202393,734.794800 1621.955811,731.479614 1621.932861,728.181396 
z"/>
<path fill="#97B8AE" opacity="1.000000" stroke="none" 
	d="
M1760.024414,720.019531 
	C1761.262207,717.724670 1762.173584,715.161133 1763.799561,713.185852 
	C1768.496338,707.479858 1769.748657,700.435181 1767.222900,694.404419 
	C1764.267578,687.348511 1765.696167,680.821899 1765.944336,673.211792 
	C1777.894653,672.261597 1789.849121,672.001038 1801.804199,671.974121 
	C1830.711914,671.909058 1859.619873,671.953003 1890.399658,671.953003 
	C1880.808228,690.035889 1871.071899,706.684570 1860.086670,723.614197 
	C1847.225342,722.699707 1835.716187,720.487427 1824.245117,720.670105 
	C1802.818237,721.011108 1781.408081,723.552856 1760.024414,720.019531 
z"/>
<path fill="#9ABEAF" opacity="1.000000" stroke="none" 
	d="
M1160.941162,449.772461 
	C1151.780396,447.922577 1151.267212,446.979156 1154.058960,439.835114 
	C1155.605347,435.877716 1156.983032,431.835052 1158.118164,427.742462 
	C1159.019287,424.494049 1160.463989,422.552612 1164.193115,422.596893 
	C1174.866699,422.723602 1174.867676,422.643494 1185.376831,414.261810 
	C1184.078125,412.937500 1182.957764,411.497955 1181.548218,410.445831 
	C1180.270874,409.492371 1177.608643,409.191010 1177.397461,408.206940 
	C1175.955566,401.492828 1170.377319,400.329956 1165.284180,398.301605 
	C1164.667358,398.055939 1164.545410,396.567444 1164.126099,394.925140 
	C1164.057983,394.195343 1164.103271,394.059906 1164.813477,394.187866 
	C1171.264160,396.456390 1174.496704,393.966919 1176.149048,388.560303 
	C1186.286499,384.584625 1196.156860,379.608521 1206.610718,376.818146 
	C1239.877563,367.938446 1273.822876,364.337677 1309.167114,366.443787 
	C1309.148804,367.668396 1308.219604,369.365417 1307.327026,369.346405 
	C1301.476318,369.221649 1297.698853,372.846466 1293.619263,376.169739 
	C1283.810669,384.160004 1283.182861,390.745270 1291.802490,400.708923 
	C1273.990112,403.904572 1255.818237,405.935577 1237.864380,409.174957 
	C1214.585205,413.375214 1193.621826,423.288147 1173.822021,437.825439 
	C1172.930420,438.141296 1172.221680,438.807037 1172.221680,438.807068 
	C1168.647827,442.346405 1165.074097,445.885773 1160.941162,449.772461 
z"/>
<path fill="#90AAA7" opacity="1.000000" stroke="none" 
	d="
M1827.979858,486.083344 
	C1858.425659,486.056519 1888.909302,485.133423 1919.299805,486.415771 
	C1932.651001,486.979126 1946.249146,484.040192 1960.334839,488.334503 
	C1953.714844,502.527008 1946.149902,516.554688 1938.700439,530.643372 
	C1936.284180,535.213074 1932.355347,535.848389 1927.757080,535.823425 
	C1904.448975,535.696960 1881.140137,535.708557 1856.981689,534.746094 
	C1858.259155,528.064453 1862.598145,522.096924 1858.667725,516.104980 
	C1853.555908,508.312195 1849.267212,499.506592 1839.341553,495.942688 
	C1834.533203,494.216187 1829.327637,492.159607 1827.979858,486.083344 
z"/>
<path fill="#9FAEA4" opacity="1.000000" stroke="none" 
	d="
M1759.144287,720.016602 
	C1781.408081,723.552856 1802.818237,721.011108 1824.245117,720.670105 
	C1835.716187,720.487427 1847.225342,722.699707 1859.557617,724.017212 
	C1853.089722,737.879272 1845.711426,751.518738 1838.514404,765.253113 
	C1836.245483,769.582886 1832.589355,769.824036 1828.445068,769.801208 
	C1807.590088,769.686523 1786.734497,769.685364 1764.964844,769.446594 
	C1765.422974,766.056396 1766.795532,762.863953 1768.447266,759.022095 
	C1766.640259,759.255554 1765.092773,759.625122 1763.544556,759.628052 
	C1753.460327,759.647156 1748.450806,754.623413 1747.939575,744.699097 
	C1747.547607,737.088196 1746.641235,729.503723 1745.946045,721.040588 
	C1750.040527,720.120300 1754.152344,720.066956 1759.144287,720.016602 
z"/>
<path fill="#8BAAB0" opacity="1.000000" stroke="none" 
	d="
M1139.300903,663.949097 
	C1138.948853,665.407166 1138.000854,666.722778 1136.778564,667.692566 
	C1135.804932,668.465027 1134.496338,668.815369 1132.430298,669.773132 
	C1136.461792,673.715271 1141.192505,676.616455 1143.254272,680.825073 
	C1145.471191,685.350586 1145.183716,691.103027 1145.996948,697.160034 
	C1124.162109,690.997498 1101.656372,686.938660 1078.954712,684.574646 
	C1064.864380,683.107361 1050.429321,682.497986 1036.437500,686.169983 
	C1028.478271,688.258850 1020.859192,691.665588 1012.881470,693.654541 
	C1007.888489,694.899231 1002.510742,694.579468 997.310791,695.022461 
	C994.022888,695.302551 990.590027,695.186401 987.490173,696.129333 
	C977.337769,699.217346 967.925293,697.857178 958.264893,692.108765 
	C969.576111,685.268677 981.570801,678.698242 993.619751,672.229065 
	C995.333252,671.309082 997.310547,670.880310 1000.022156,670.173584 
	C1000.878601,670.122864 1001.181519,669.957947 1001.181519,669.957947 
	C1004.902039,668.670654 1008.622620,667.383362 1013.611328,666.468384 
	C1017.681030,668.502502 1019.200317,667.297974 1020.024109,664.539062 
	C1020.954224,664.323975 1021.884399,664.108887 1023.924683,664.513916 
	C1027.920166,666.363342 1029.294312,664.921326 1030.011719,662.318604 
	C1045.149292,657.913025 1060.719604,656.604004 1076.341553,656.868896 
	C1097.263184,657.223572 1118.198242,658.115112 1139.300903,663.949097 
z"/>
<path fill="#85A4AE" opacity="1.000000" stroke="none" 
	d="
M1124.013184,916.027954 
	C1117.753296,927.266602 1112.056641,938.869019 1105.090454,949.651367 
	C1096.490967,962.962097 1086.847168,975.598938 1077.622192,988.503845 
	C1076.469849,990.115784 1075.335693,991.853027 1073.823486,993.074646 
	C1068.918701,997.036743 1066.988159,1001.877319 1069.216553,1008.062744 
	C1051.932861,1013.207092 1040.296509,1005.658630 1030.290283,992.343140 
	C1034.707031,986.095337 1039.636597,980.290588 1045.192871,973.977722 
	C1045.819336,973.469604 1045.854858,973.299072 1045.854858,973.299072 
	C1066.938965,944.882874 1084.921997,914.558838 1101.911133,883.322266 
	C1103.551147,884.183777 1104.436279,885.314270 1105.563232,885.662354 
	C1117.107666,889.229126 1119.286743,891.983521 1118.087402,903.560913 
	C1117.503662,909.195740 1119.776978,912.948608 1124.013184,916.027954 
z"/>
<path fill="#8C9B98" opacity="1.000000" stroke="none" 
	d="
M1599.588257,581.046997 
	C1603.595215,577.932129 1607.661865,575.805847 1611.526245,573.360168 
	C1613.467529,572.131775 1614.864014,570.036926 1616.813477,568.828979 
	C1622.826904,565.103149 1628.208130,560.970093 1631.336060,554.251709 
	C1632.343872,552.086914 1634.977661,550.679199 1636.708984,549.072632 
	C1641.198120,550.904053 1639.914795,554.358704 1639.939941,557.059509 
	C1640.079346,572.049072 1639.984253,587.040710 1640.035889,602.031372 
	C1640.047119,605.278809 1640.330811,608.525269 1642.180786,612.057617 
	C1642.768555,610.512268 1643.837646,608.975586 1643.865479,607.420227 
	C1644.038574,597.762390 1643.916504,588.099548 1644.029785,578.440063 
	C1644.067139,575.245300 1643.276855,571.481018 1648.539062,570.152100 
	C1649.420532,577.449768 1649.557495,584.865417 1649.324829,593.387573 
	C1648.738770,595.032410 1648.849365,595.501343 1649.287109,595.900757 
	C1649.446289,614.678650 1649.605469,633.456604 1649.266602,653.404907 
	C1648.412964,654.955444 1648.145264,655.389893 1647.965698,655.878540 
	C1641.577026,657.305115 1635.187256,658.726929 1628.799927,660.159302 
	C1619.770508,662.184143 1610.742920,664.216919 1600.869873,665.551025 
	C1599.375366,663.228149 1598.725342,661.600647 1598.078613,659.176758 
	C1598.077637,656.255066 1598.073730,654.129822 1598.502930,651.311890 
	C1599.032959,642.764709 1599.188232,634.910339 1599.209839,627.055603 
	C1599.231445,619.198547 1599.116211,611.341125 1599.068115,603.483826 
	C1599.052124,600.882263 1599.057739,598.280518 1599.053467,595.678894 
	C1599.223877,591.087158 1599.394165,586.495483 1599.588257,581.046997 
z"/>
<path fill="#8C9B98" opacity="1.000000" stroke="none" 
	d="
M1531.403687,998.489624 
	C1535.269531,1001.357056 1539.428711,1004.015320 1540.671021,1009.424927 
	C1541.100952,1011.297729 1544.188843,1013.515381 1546.336060,1013.856934 
	C1552.413696,1014.823853 1558.630859,1014.933594 1564.796997,1015.316528 
	C1568.005005,1015.515747 1571.221558,1015.578979 1575.182617,1015.826294 
	C1571.492554,1026.210938 1567.054199,1036.472656 1562.315796,1047.363647 
	C1550.959106,1064.133545 1539.445801,1079.850708 1525.519165,1093.772949 
	C1519.979492,1099.310791 1514.991943,1100.423462 1507.822754,1097.797852 
	C1499.479248,1094.742188 1490.690063,1092.921997 1482.172363,1090.311035 
	C1479.691650,1089.550781 1477.477661,1087.919678 1474.528564,1086.326538 
	C1484.315674,1074.438232 1495.306641,1063.382324 1504.967041,1051.265747 
	C1517.274170,1035.829346 1524.332397,1017.473633 1531.403687,998.489624 
z"/>
<path fill="#8BAAB0" opacity="1.000000" stroke="none" 
	d="
M1124.498291,915.553589 
	C1119.776978,912.948608 1117.503662,909.195740 1118.087402,903.560913 
	C1119.286743,891.983521 1117.107666,889.229126 1105.563232,885.662354 
	C1104.436279,885.314270 1103.551147,884.183777 1102.294800,882.768921 
	C1106.539429,872.947754 1111.150269,863.825012 1115.525635,854.590759 
	C1126.888062,830.611023 1138.144165,806.580872 1149.456299,782.577209 
	C1150.015625,781.390137 1150.704590,780.264099 1152.417236,778.809082 
	C1161.462769,786.847168 1169.144531,795.532715 1180.052246,800.741577 
	C1178.646484,804.918823 1177.378906,808.405396 1176.111328,811.891968 
	C1165.228760,834.969360 1154.560913,858.151489 1143.373779,881.080322 
	C1137.728760,892.649963 1131.143433,903.760803 1124.498291,915.553589 
z"/>
<path fill="#94A49F" opacity="1.000000" stroke="none" 
	d="
M1827.312012,486.064545 
	C1829.327637,492.159607 1834.533203,494.216187 1839.341553,495.942688 
	C1849.267212,499.506592 1853.555908,508.312195 1858.667725,516.104980 
	C1862.598145,522.096924 1858.259155,528.064453 1856.064819,534.540894 
	C1848.595581,535.438416 1841.193359,535.615601 1832.692871,535.423279 
	C1831.013550,534.742004 1830.499634,534.833069 1830.052612,535.326965 
	C1807.340454,535.301208 1784.628418,535.275452 1761.004395,535.052490 
	C1761.464233,531.541077 1762.052124,527.487976 1764.351807,525.048462 
	C1771.888672,517.052979 1769.215698,508.584503 1762.239380,499.451141 
	C1759.462036,495.815063 1755.573608,492.996338 1756.856445,486.920227 
	C1779.836182,486.056793 1801.904297,486.020477 1823.972290,485.984192 
	C1824.862915,486.004700 1825.753540,486.025238 1827.312012,486.064545 
z"/>
<path fill="#9ABEAF" opacity="1.000000" stroke="none" 
	d="
M1439.141235,817.206726 
	C1433.144287,814.043701 1427.618164,809.278442 1421.246582,806.357056 
	C1412.349731,802.277832 1402.821411,799.575500 1392.786133,795.282227 
	C1390.653931,781.533325 1389.299072,768.786194 1387.906372,755.193726 
	C1387.244385,748.126709 1386.203247,741.913208 1386.081055,735.681702 
	C1385.808716,721.793396 1385.995483,707.896057 1386.681396,694.155273 
	C1389.382568,697.088684 1391.629639,699.732727 1393.363159,702.678833 
	C1396.690674,708.333740 1401.334106,711.335571 1407.142212,708.994812 
	C1414.515381,706.023254 1421.066406,707.116333 1427.837769,709.986206 
	C1428.366943,712.239929 1428.896118,714.493591 1428.565430,717.488220 
	C1421.176758,721.064880 1424.873657,724.552856 1426.516846,728.620605 
	C1427.878540,727.381592 1428.593018,726.731567 1429.307495,726.081543 
	C1429.518433,728.853333 1429.729370,731.625061 1429.214844,735.411987 
	C1424.940186,739.167236 1426.414307,740.777161 1429.736816,741.971191 
	C1431.905396,762.079773 1433.983765,782.198792 1436.308594,802.289307 
	C1436.859619,807.051025 1438.237305,811.717041 1439.141235,817.206726 
z"/>
<path fill="#9FAEA4" opacity="1.000000" stroke="none" 
	d="
M1498.650146,1025.619873 
	C1485.197632,1014.593933 1472.238037,1003.161804 1462.856689,988.322327 
	C1457.720825,980.197876 1451.632446,972.629211 1447.002319,964.242065 
	C1439.629639,950.887695 1433.116333,937.059021 1426.117310,922.717896 
	C1430.779663,922.793030 1435.564209,923.581238 1441.515747,924.561646 
	C1444.481201,922.424011 1448.374756,920.010376 1454.008057,921.522034 
	C1456.452271,922.177917 1459.979370,919.712952 1462.709351,918.136719 
	C1465.516113,916.516113 1467.950562,914.250732 1471.316162,912.921936 
	C1474.823120,923.639954 1477.148682,933.842529 1480.466919,943.711365 
	C1482.260010,949.044556 1483.529175,955.248047 1489.599365,958.097046 
	C1496.233276,967.838623 1502.513794,977.851685 1509.682373,987.182556 
	C1512.388550,990.705200 1514.160522,993.325256 1512.123657,997.576782 
	C1507.731812,1006.743835 1503.468750,1015.972656 1498.650146,1025.619873 
z"/>
<path fill="#828F90" opacity="1.000000" stroke="none" 
	d="
M1489.671021,957.324646 
	C1483.529175,955.248047 1482.260010,949.044556 1480.466919,943.711365 
	C1477.148682,933.842529 1474.823120,923.639954 1471.992310,912.775024 
	C1466.656860,881.106628 1471.593628,851.541748 1485.648438,823.976807 
	C1492.053589,811.414612 1501.767578,800.525818 1510.119873,788.978699 
	C1512.435669,785.777222 1515.250366,782.936462 1518.026733,779.340698 
	C1521.690308,776.488831 1525.163208,774.226501 1529.341187,772.546509 
	C1531.978760,776.028259 1533.407959,779.532349 1535.975098,781.669617 
	C1538.971558,784.164429 1542.983765,785.424255 1546.515503,787.295044 
	C1551.382202,789.873047 1555.470337,793.132935 1556.261108,799.095154 
	C1545.056519,807.900940 1533.132568,815.942322 1522.795898,825.670349 
	C1500.863403,846.311462 1486.654663,871.622437 1482.621216,901.745789 
	C1480.114624,920.465576 1482.837891,938.871033 1489.671021,957.324646 
z"/>
<path fill="#A1C6B1" opacity="1.000000" stroke="none" 
	d="
M1824.019653,485.263184 
	C1801.904297,486.020477 1779.836182,486.056793 1756.820312,486.175110 
	C1753.768311,486.209930 1751.663940,486.162689 1748.770752,485.285217 
	C1749.144653,480.769775 1750.455566,477.122681 1751.415894,473.385468 
	C1752.016602,471.047180 1753.158325,467.067108 1752.225586,466.405243 
	C1746.262085,462.173828 1740.759033,457.785919 1736.950928,451.294983 
	C1736.087524,449.823486 1732.634399,450.000366 1730.498779,449.115784 
	C1727.355957,447.814026 1723.260010,447.954315 1721.027832,443.100128 
	C1724.186768,442.606720 1726.812622,442.627228 1729.058594,441.713867 
	C1730.962524,440.939606 1732.427246,439.085785 1734.086304,437.709625 
	C1750.580078,437.527374 1767.073608,437.263733 1783.567871,437.187683 
	C1797.766357,437.122223 1811.966064,437.270630 1827.078491,437.544189 
	C1829.299316,442.468109 1830.688843,447.151703 1831.876953,451.885864 
	C1832.413330,454.023132 1833.591064,457.505920 1832.698120,458.254059 
	C1826.286377,463.625671 1828.960693,468.498169 1832.933350,472.928894 
	C1829.740479,477.110992 1826.903809,480.826599 1824.019653,485.263184 
z"/>
<path fill="#8C9B98" opacity="1.000000" stroke="none" 
	d="
M1556.967285,798.834473 
	C1555.470337,793.132935 1551.382202,789.873047 1546.515503,787.295044 
	C1542.983765,785.424255 1538.971558,784.164429 1535.975098,781.669617 
	C1533.407959,779.532349 1531.978760,776.028259 1530.007812,772.351501 
	C1534.537354,767.777161 1538.815308,763.547302 1543.722900,760.256409 
	C1567.156250,744.542725 1593.198364,735.032471 1621.224487,728.437134 
	C1621.955811,731.479614 1622.202393,734.794800 1621.954590,738.072510 
	C1621.464600,744.548523 1623.724976,748.943787 1629.124878,753.136353 
	C1634.308350,757.160828 1639.872314,762.126038 1639.419434,770.912231 
	C1621.416016,776.457031 1603.376099,780.614380 1585.745605,786.090454 
	C1576.032715,789.107178 1567.008301,794.340027 1556.967285,798.834473 
z"/>
<path fill="#7A878A" opacity="1.000000" stroke="none" 
	d="
M1246.041748,1050.751709 
	C1253.053955,1045.161865 1259.693970,1044.578003 1266.594360,1050.840210 
	C1269.344360,1053.335938 1273.450073,1054.337646 1277.826172,1056.447510 
	C1280.637695,1044.145996 1289.755249,1046.168091 1298.730713,1045.961060 
	C1298.737793,1058.486938 1300.400391,1070.291260 1307.713989,1081.080078 
	C1316.726929,1094.375610 1328.059814,1104.451660 1342.982178,1110.775513 
	C1365.592041,1120.357056 1388.831543,1120.425903 1413.322632,1116.700928 
	C1409.177002,1119.099731 1404.402710,1122.251343 1399.164551,1123.596558 
	C1344.843384,1137.548462 1291.523193,1120.416138 1257.910400,1074.316162 
	C1252.922241,1067.474976 1249.987671,1059.136597 1246.041748,1050.751709 
z"/>
<path fill="#A5C8AF" opacity="1.000000" stroke="none" 
	d="
M1427.991089,709.060974 
	C1421.066406,707.116333 1414.515381,706.023254 1407.142212,708.994812 
	C1401.334106,711.335571 1396.690674,708.333740 1393.363159,702.678833 
	C1391.629639,699.732727 1389.382568,697.088684 1386.682739,693.233765 
	C1385.988525,684.775085 1385.979126,677.390686 1385.979492,669.071411 
	C1386.686035,651.873108 1387.115356,635.591553 1388.221680,619.356140 
	C1388.619873,613.510986 1390.645630,607.776794 1391.928711,601.992004 
	C1396.397217,605.426697 1400.843262,608.891174 1405.346313,612.279968 
	C1406.921265,613.465332 1408.609497,615.345276 1410.292969,615.397705 
	C1418.272217,615.646118 1419.925659,621.445312 1421.348511,627.378784 
	C1423.187866,635.049683 1426.064209,642.586182 1421.352661,650.550476 
	C1418.791870,654.878784 1421.909302,657.260071 1427.013062,657.947144 
	C1427.870605,674.706665 1428.007446,691.421204 1427.991089,709.060974 
z"/>
<path fill="#A1C6B1" opacity="1.000000" stroke="none" 
	d="
M1321.283813,469.998657 
	C1323.533447,476.308868 1324.243164,482.473145 1317.969238,487.661713 
	C1315.961182,489.322479 1315.218628,492.910187 1314.591187,495.768585 
	C1312.770264,504.063690 1316.903687,508.008972 1325.520386,506.540161 
	C1326.499268,506.373291 1327.482788,506.231842 1328.905273,506.600250 
	C1328.223022,509.407318 1327.099487,511.692780 1325.415527,514.354858 
	C1320.743286,520.662903 1316.211914,526.350525 1312.597778,532.571106 
	C1301.540894,551.601196 1290.836670,570.836182 1279.538696,590.024780 
	C1279.082153,590.058105 1278.168579,590.116638 1277.442871,589.966309 
	C1271.650024,588.553833 1269.186523,585.229309 1268.050781,580.170227 
	C1265.819214,570.229736 1264.662109,569.691467 1254.544067,571.964233 
	C1273.418701,536.015503 1294.284668,501.362305 1321.283813,469.998657 
z"/>
<path fill="#8C9B98" opacity="1.000000" stroke="none" 
	d="
M1597.916260,877.128052 
	C1594.975220,877.677307 1592.074585,877.283752 1588.678833,876.822937 
	C1584.750610,884.144531 1579.163940,884.763489 1572.464478,880.512329 
	C1564.839478,875.674011 1556.984497,876.851929 1548.335693,880.008545 
	C1547.603149,864.566101 1547.873047,849.075684 1547.603149,833.594543 
	C1547.510742,828.300781 1549.250977,824.695740 1553.756958,822.306335 
	C1561.898560,817.989319 1570.075806,813.739197 1579.009521,810.112183 
	C1579.589478,812.379761 1579.265991,813.993530 1579.231201,815.613403 
	C1579.127075,820.471680 1581.118408,822.339844 1585.548218,821.482056 
	C1586.791626,821.241272 1587.900269,820.375305 1589.130371,819.983215 
	C1594.555664,818.253601 1597.305786,819.764465 1597.802979,825.327087 
	C1598.237549,830.189453 1597.969116,835.114746 1598.011230,840.012207 
	C1597.993164,852.069885 1597.974976,864.127563 1597.916260,877.128052 
z"/>
<path fill="#9ABEAF" opacity="1.000000" stroke="none" 
	d="
M1254.095703,572.506836 
	C1264.662109,569.691467 1265.819214,570.229736 1268.050781,580.170227 
	C1269.186523,585.229309 1271.650024,588.553833 1277.368408,590.700623 
	C1277.157715,594.066711 1276.542358,596.669373 1275.393311,599.010071 
	C1268.264771,613.532898 1260.933350,627.956360 1253.843750,642.497803 
	C1250.389282,649.583069 1247.312622,656.852478 1243.775635,664.458862 
	C1242.987305,665.343323 1242.488281,665.807434 1241.500610,665.783936 
	C1232.470947,659.831848 1223.930054,654.367371 1215.389160,648.902832 
	C1221.598633,635.818604 1227.571045,622.614929 1234.085571,609.684448 
	C1240.312744,597.324890 1247.103882,585.249695 1254.095703,572.506836 
z"/>
<path fill="#9ABEAF" opacity="1.000000" stroke="none" 
	d="
M1733.305908,437.459595 
	C1732.427246,439.085785 1730.962524,440.939606 1729.058594,441.713867 
	C1726.812622,442.627228 1724.186768,442.606720 1721.027832,443.100128 
	C1723.260010,447.954315 1727.355957,447.814026 1730.498779,449.115784 
	C1732.634399,450.000366 1736.087524,449.823486 1736.950928,451.294983 
	C1740.759033,457.785919 1746.262085,462.173828 1752.225586,466.405243 
	C1753.158325,467.067108 1752.016602,471.047180 1751.415894,473.385468 
	C1750.455566,477.122681 1749.144653,480.769775 1747.979858,485.262024 
	C1734.113770,485.611542 1720.252197,485.022217 1706.384399,484.775360 
	C1702.131226,484.699677 1697.861328,485.562195 1692.764526,485.928253 
	C1691.236328,480.694519 1690.542725,475.527557 1689.777954,469.830872 
	C1689.739868,469.885834 1689.985474,469.114105 1690.484619,468.877350 
	C1693.500000,467.447449 1698.560303,468.046417 1697.509644,462.514160 
	C1696.659546,458.037140 1695.782471,453.700653 1690.129517,451.861938 
	C1680.720581,448.801697 1671.592285,444.871124 1662.386719,441.204773 
	C1661.574341,440.881256 1661.061768,439.804871 1660.163574,438.413025 
	C1675.822021,437.531067 1691.726196,437.265015 1707.631714,437.117432 
	C1715.928589,437.040466 1724.227539,437.172150 1733.305908,437.459595 
z"/>
<path fill="#94A49F" opacity="1.000000" stroke="none" 
	d="
M1598.789307,840.153076 
	C1597.969116,835.114746 1598.237549,830.189453 1597.802979,825.327087 
	C1597.305786,819.764465 1594.555664,818.253601 1589.130371,819.983215 
	C1587.900269,820.375305 1586.791626,821.241272 1585.548218,821.482056 
	C1581.118408,822.339844 1579.127075,820.471680 1579.231201,815.613403 
	C1579.265991,813.993530 1579.589478,812.379761 1579.743896,809.982666 
	C1599.371460,798.376099 1620.816895,793.378540 1642.763062,790.145020 
	C1645.306274,789.770264 1649.105347,788.395020 1649.099609,793.808594 
	C1648.476807,794.254883 1648.306641,794.188477 1648.136597,794.122070 
	C1648.365601,794.448792 1648.594727,794.775635 1648.823730,795.102417 
	C1649.104492,800.010254 1649.385376,804.918091 1648.772095,811.264160 
	C1644.233521,824.200439 1645.981934,835.876465 1646.871094,847.501526 
	C1646.951172,848.549255 1648.438110,849.489319 1649.271851,850.479370 
	C1649.428223,853.035767 1649.584473,855.592163 1649.522095,858.889771 
	C1645.374023,860.461060 1644.032349,863.104004 1643.988892,866.868774 
	C1643.953979,869.897766 1643.624878,872.923340 1642.009766,875.897461 
	C1638.982788,857.849792 1641.043457,839.597778 1639.234619,819.453003 
	C1632.900024,825.861450 1627.489258,829.733093 1625.886108,837.014038 
	C1624.514893,843.240967 1622.418213,844.615662 1616.067139,843.731323 
	C1610.515259,842.958252 1605.063477,841.467651 1598.789307,840.153076 
z"/>
<path fill="#9ABEAF" opacity="1.000000" stroke="none" 
	d="
M1598.075439,659.973083 
	C1598.725342,661.600647 1599.375366,663.228149 1600.066772,665.528320 
	C1587.221680,671.418091 1574.305664,676.564270 1561.464844,681.891541 
	C1557.056885,683.720337 1552.836670,686.002136 1547.469604,688.588318 
	C1547.469604,604.496155 1547.469604,521.392456 1547.469604,437.224762 
	C1562.811890,437.224762 1577.661377,437.224762 1593.289307,437.478119 
	C1592.777588,441.857483 1589.386475,441.900330 1585.971191,441.899841 
	C1577.976440,441.898712 1569.980591,441.812317 1561.987427,441.921906 
	C1552.599243,442.050598 1551.957397,442.667236 1551.910400,452.364899 
	C1551.816772,471.684998 1551.856323,491.005737 1551.860962,510.326233 
	C1551.869141,544.969849 1551.892334,579.613525 1551.923096,616.079834 
	C1551.946167,623.210510 1551.955444,628.518494 1551.499023,634.517578 
	C1549.693726,643.564636 1548.493408,651.915222 1551.982666,660.926392 
	C1552.273804,665.529907 1552.574219,669.291565 1553.015381,674.814209 
	C1557.533325,672.623474 1560.445312,671.400757 1563.167236,669.845520 
	C1566.898682,667.713257 1570.319214,664.976440 1574.180542,663.148254 
	C1578.304810,661.195679 1582.672729,659.148560 1586.676880,664.124023 
	C1588.585571,666.495850 1591.366699,666.148621 1593.676636,663.949280 
	C1595.107666,662.586914 1596.606812,661.296021 1598.075439,659.973083 
z"/>
<path fill="#7A878A" opacity="1.000000" stroke="none" 
	d="
M1368.078369,909.943115 
	C1372.319458,919.513489 1376.729126,929.014832 1380.689453,938.700012 
	C1381.753296,941.301819 1381.448853,944.463135 1381.676758,948.246216 
	C1376.423828,941.411499 1371.277100,933.691345 1366.107666,925.986389 
	C1354.640015,908.894653 1343.161011,891.810486 1331.902588,873.353455 
	C1337.000732,866.076660 1338.484497,859.273438 1338.097656,851.712402 
	C1337.728271,844.490540 1338.006958,837.235413 1338.564331,830.356323 
	C1344.089600,837.143433 1349.051147,843.569275 1354.291138,850.705200 
	C1357.695679,864.517822 1360.866821,877.609924 1363.928223,890.727600 
	C1365.417358,897.108093 1366.701416,903.536438 1368.078369,909.943115 
z"/>
<path fill="#849294" opacity="1.000000" stroke="none" 
	d="
M1338.000488,829.994995 
	C1338.006958,837.235413 1337.728271,844.490540 1338.097656,851.712402 
	C1338.484497,859.273438 1337.000732,866.076660 1331.710449,872.731934 
	C1321.839966,862.669495 1312.377686,851.858765 1302.715820,840.420654 
	C1304.877197,838.241516 1307.238525,836.689636 1310.121338,834.794922 
	C1304.197754,827.172729 1304.127808,819.118591 1303.789917,810.846680 
	C1303.499268,803.728577 1301.404297,796.684204 1300.621094,789.142944 
	C1309.439087,796.807861 1318.060547,804.644531 1325.926758,813.177429 
	C1330.569458,818.213562 1334.016113,824.352173 1338.000488,829.994995 
z"/>
<path fill="#7A878A" opacity="1.000000" stroke="none" 
	d="
M1176.794434,812.039307 
	C1177.378906,808.405396 1178.646484,804.918823 1180.523926,800.253906 
	C1185.554199,791.277649 1190.148071,783.541016 1189.954712,774.112732 
	C1198.708008,779.304871 1207.452026,784.512573 1216.218384,789.682495 
	C1220.540283,792.231323 1220.646851,795.571960 1218.695557,799.800354 
	C1213.312256,811.465332 1208.145630,823.230286 1202.414062,835.459595 
	C1199.923584,833.522949 1197.691650,831.229919 1195.943970,828.613403 
	C1191.199097,821.509094 1185.977783,815.030762 1176.794434,812.039307 
z"/>
<path fill="#90AAA7" opacity="1.000000" stroke="none" 
	d="
M1214.847412,649.359497 
	C1223.930054,654.367371 1232.470947,659.831848 1241.230835,666.436218 
	C1237.570557,676.409180 1233.691284,685.242310 1229.812012,694.075439 
	C1219.696167,690.993164 1209.453735,688.204468 1200.505249,681.018188 
	C1204.862915,670.245178 1209.584351,660.030640 1214.847412,649.359497 
z"/>
<path fill="#7F9AA6" opacity="1.000000" stroke="none" 
	d="
M1189.466064,773.634766 
	C1190.148071,783.541016 1185.554199,791.277649 1180.661865,799.563171 
	C1169.144531,795.532715 1161.462769,786.847168 1152.885254,778.301514 
	C1154.611694,772.377747 1156.953979,766.660828 1159.451172,760.565918 
	C1171.037720,762.290466 1179.517578,768.918396 1189.466064,773.634766 
z"/>
<path fill="#A1C6B1" opacity="1.000000" stroke="none" 
	d="
M1363.348389,428.165283 
	C1362.221680,438.776093 1354.193726,442.951447 1344.284912,445.971008 
	C1349.911255,440.106659 1356.300293,434.216614 1363.348389,428.165283 
z"/>
<path fill="#9FAEA4" opacity="1.000000" stroke="none" 
	d="
M1649.468994,849.584473 
	C1648.438110,849.489319 1646.951172,848.549255 1646.871094,847.501526 
	C1645.981934,835.876465 1644.233521,824.200439 1648.530029,812.061890 
	C1649.343384,823.844116 1649.504639,836.266907 1649.468994,849.584473 
z"/>
<path fill="#8C9B98" opacity="1.000000" stroke="none" 
	d="
M1654.585815,770.551147 
	C1658.467163,766.686218 1663.537842,767.806702 1669.235596,769.259644 
	C1665.012329,770.041138 1660.153687,770.407593 1654.585815,770.551147 
z"/>
<path fill="#8C9B98" opacity="1.000000" stroke="none" 
	d="
M1649.503052,565.153015 
	C1642.621460,563.208496 1642.265991,560.691406 1648.608276,556.128418 
	C1649.424438,558.808228 1649.562012,561.574707 1649.503052,565.153015 
z"/>
<path fill="#A5C8AF" opacity="1.000000" stroke="none" 
	d="
M1429.463623,725.282471 
	C1428.593018,726.731567 1427.878540,727.381592 1426.516846,728.620605 
	C1424.873657,724.552856 1421.176758,721.064880 1428.338745,718.147705 
	C1429.187744,720.205322 1429.403809,722.344421 1429.463623,725.282471 
z"/>
<path fill="#93B6B1" opacity="1.000000" stroke="none" 
	d="
M1175.510498,388.788788 
	C1174.496704,393.966919 1171.264160,396.456390 1164.880615,394.211975 
	C1167.782349,392.411163 1171.327148,390.714233 1175.510498,388.788788 
z"/>
<path fill="#9ABEAF" opacity="1.000000" stroke="none" 
	d="
M1651.495850,437.490936 
	C1649.390381,441.904694 1646.339478,443.156952 1642.263428,438.315369 
	C1644.897827,437.582245 1647.897461,437.408905 1651.495850,437.490936 
z"/>
<path fill="#85A4AE" opacity="1.000000" stroke="none" 
	d="
M914.782898,777.767212 
	C915.818359,779.227417 916.240417,780.816162 916.662415,782.404968 
	C914.671875,782.364746 912.681335,782.324524 910.033936,782.010132 
	C910.974487,780.455933 912.571960,779.175903 914.782898,777.767212 
z"/>
<path fill="#7F9AA6" opacity="1.000000" stroke="none" 
	d="
M977.348145,757.346375 
	C975.507385,760.766479 972.374207,760.313599 968.606445,758.648560 
	C970.951782,757.875916 973.798035,757.490906 977.348145,757.346375 
z"/>
<path fill="#7F9AA6" opacity="1.000000" stroke="none" 
	d="
M999.359314,758.020630 
	C998.101135,758.410339 996.312195,758.463196 994.239624,758.098145 
	C995.580200,757.681396 997.204407,757.682617 999.359314,758.020630 
z"/>
<path fill="#97B8AE" opacity="1.000000" stroke="none" 
	d="
M1651.473145,675.551270 
	C1650.356689,676.201172 1648.640015,676.674561 1646.533936,676.824097 
	C1647.720703,676.125061 1649.296997,675.749878 1651.473145,675.551270 
z"/>
<path fill="#9ABEAF" opacity="1.000000" stroke="none" 
	d="
M1332.447998,402.194824 
	C1333.782593,401.686188 1335.536255,401.517548 1337.696533,401.780670 
	C1336.357666,402.319885 1334.612305,402.427368 1332.447998,402.194824 
z"/>
<path fill="#9ABEAF" opacity="1.000000" stroke="none" 
	d="
M1357.415161,369.938110 
	C1356.116943,370.382904 1354.306763,370.450104 1352.206787,370.093567 
	C1353.578979,369.633392 1355.241089,369.596954 1357.415161,369.938110 
z"/>
<path fill="#A5C8AF" opacity="1.000000" stroke="none" 
	d="
M1429.891113,741.234924 
	C1426.414307,740.777161 1424.940186,739.167236 1429.042969,736.234009 
	C1429.746216,737.526917 1429.895874,739.012756 1429.891113,741.234924 
z"/>
<path fill="#85A1A9" opacity="1.000000" stroke="none" 
	d="
M1029.337891,662.204590 
	C1029.294312,664.921326 1027.920166,666.363342 1024.603271,664.761719 
	C1025.668945,663.623230 1027.166382,662.856934 1029.337891,662.204590 
z"/>
<path fill="#85A1A9" opacity="1.000000" stroke="none" 
	d="
M1019.385498,664.455566 
	C1019.200317,667.297974 1017.681030,668.502502 1014.448853,666.443604 
	C1015.594421,665.488281 1017.170654,664.930115 1019.385498,664.455566 
z"/>
<path fill="#9ABEAF" opacity="1.000000" stroke="none" 
	d="
M1396.085449,404.375519 
	C1396.863770,403.638489 1397.673584,403.440125 1398.483154,403.241760 
	C1397.967285,404.106384 1397.451416,404.971008 1396.440186,405.907593 
	C1396.002197,405.624420 1396.059570,405.269287 1396.085449,404.375519 
z"/>
<path fill="#9ABEAF" opacity="1.000000" stroke="none" 
	d="
M1335.659546,367.807739 
	C1334.849121,368.239807 1333.699951,368.384399 1332.222412,368.159912 
	C1333.036255,367.700653 1334.178589,367.610443 1335.659546,367.807739 
z"/>
<path fill="#8C9B98" opacity="1.000000" stroke="none" 
	d="
M1649.452148,545.396545 
	C1647.281860,545.068481 1646.325317,543.939758 1648.748779,541.773682 
	C1649.356201,542.598572 1649.500610,543.725769 1649.452148,545.396545 
z"/>
<path fill="#9ABEAF" opacity="1.000000" stroke="none" 
	d="
M1988.456543,441.785828 
	C1988.035156,441.063812 1988.046509,440.212036 1988.047607,438.721130 
	C1991.539307,438.506500 1989.898193,440.156586 1988.456543,441.785828 
z"/>
<path fill="#94A49F" opacity="1.000000" stroke="none" 
	d="
M1648.581177,915.915527 
	C1648.271729,914.749878 1648.371338,913.063782 1648.766602,910.814819 
	C1649.038330,911.966370 1649.014282,913.680664 1648.581177,915.915527 
z"/>
<path fill="#7F9AA6" opacity="1.000000" stroke="none" 
	d="
M961.111450,759.294556 
	C960.706909,759.697815 959.864929,759.897644 958.585327,760.077637 
	C958.989868,759.735596 959.831909,759.413391 961.111450,759.294556 
z"/>
<path fill="#849294" opacity="1.000000" stroke="none" 
	d="
M1830.513184,535.551758 
	C1830.499634,534.833069 1831.013550,534.742004 1831.778320,535.279297 
	C1831.632690,535.595398 1831.303223,535.685974 1830.513184,535.551758 
z"/>
<path fill="#9ABEAF" opacity="1.000000" stroke="none" 
	d="
M1389.940918,373.669312 
	C1390.175537,373.934631 1389.587769,373.995514 1389.587769,373.995514 
	C1389.587769,373.995514 1389.004150,373.902588 1388.733398,373.786041 
	C1388.792725,373.185303 1389.207275,373.096771 1389.940918,373.669312 
z"/>
<path fill="#94A49F" opacity="1.000000" stroke="none" 
	d="
M1640.565430,974.194824 
	C1640.202881,973.883057 1640.369995,973.319763 1640.961304,972.452759 
	C1641.576660,972.773926 1641.479858,973.371948 1640.565430,974.194824 
z"/>
<path fill="#7F9AA6" opacity="1.000000" stroke="none" 
	d="
M1045.692871,973.190674 
	C1045.854858,973.299072 1045.819336,973.469604 1045.781006,973.492737 
	C1045.742676,973.515869 1045.531006,973.082214 1045.692871,973.190674 
z"/>
<path fill="#94A49F" opacity="1.000000" stroke="none" 
	d="
M1642.127319,967.520386 
	C1641.896240,967.602722 1641.967041,966.949402 1642.043579,966.803162 
	C1642.120117,966.656921 1642.358398,967.438049 1642.127319,967.520386 
z"/>
<path fill="#93B6B1" opacity="1.000000" stroke="none" 
	d="
M1172.511230,438.831268 
	C1172.221680,438.807037 1172.930420,438.141296 1173.148438,438.028717 
	C1173.406006,438.366882 1173.217529,438.680023 1172.511230,438.831268 
z"/>
<path fill="#A1C6B1" opacity="1.000000" stroke="none" 
	d="
M1335.376953,453.702454 
	C1335.288452,453.579529 1335.588989,453.517212 1335.618408,453.440369 
	C1335.647949,453.363495 1335.465332,453.825348 1335.376953,453.702454 
z"/>
<path fill="#849294" opacity="1.000000" stroke="none" 
	d="
M1649.443115,595.451660 
	C1648.849365,595.501343 1648.738770,595.032410 1649.129150,594.296509 
	C1649.302979,594.098999 1649.598877,595.002502 1649.443115,595.451660 
z"/>
<path fill="#7A878A" opacity="1.000000" stroke="none" 
	d="
M1196.741455,848.287964 
	C1196.309204,847.920776 1196.485107,847.318787 1197.226562,846.453735 
	C1197.700195,846.812744 1197.552734,847.433533 1196.741455,848.287964 
z"/>
<path fill="#849294" opacity="1.000000" stroke="none" 
	d="
M1648.425537,655.785217 
	C1648.145264,655.389893 1648.412964,654.955444 1649.062500,654.327026 
	C1649.733398,654.772522 1649.576294,655.310242 1648.425537,655.785217 
z"/>
<path fill="#85A1A9" opacity="1.000000" stroke="none" 
	d="
M1001.125732,669.759888 
	C1001.181519,669.957947 1000.878601,670.122864 1000.791260,670.117920 
	C1000.703918,670.112976 1001.070007,669.561829 1001.125732,669.759888 
z"/>
<path fill="#9CB9A8" opacity="1.000000" stroke="none" 
	d="
M1325.975830,513.978210 
	C1327.099487,511.692780 1328.223022,509.407318 1329.663574,506.558411 
	C1343.310547,490.337372 1355.836182,473.894226 1370.168701,459.215485 
	C1389.297852,439.624207 1411.842896,424.296509 1436.750854,412.663940 
	C1443.712280,409.412842 1443.736694,409.465149 1449.478271,416.058411 
	C1445.956055,422.102173 1442.078735,428.247620 1438.691406,434.652313 
	C1420.239868,469.539246 1407.099854,506.447388 1398.989746,544.973450 
	C1395.178101,563.079590 1391.465210,581.414124 1391.940430,601.080017 
	C1390.645630,607.776794 1388.619873,613.510986 1388.221680,619.356140 
	C1387.115356,635.591553 1386.686035,651.873108 1385.328613,668.876343 
	C1379.797729,664.314331 1374.772339,659.170166 1373.727417,651.482239 
	C1373.183838,647.482178 1370.530396,645.786438 1366.560425,646.894531 
	C1360.984985,648.450745 1358.476440,646.157532 1357.987427,640.681458 
	C1357.834839,638.973572 1357.055298,637.321655 1356.701416,636.116272 
	C1353.558960,639.011475 1350.866089,641.492493 1347.988281,643.153931 
	C1348.211426,639.714966 1348.714966,637.106384 1349.013916,634.474609 
	C1355.547119,576.982666 1371.000488,522.062256 1396.879639,469.610901 
	C1398.239380,467.014404 1399.090454,464.802551 1399.941528,462.590698 
	C1399.421875,462.216248 1398.902100,461.841766 1398.382446,461.467285 
	C1396.923218,462.511108 1395.463989,463.554932 1393.571777,465.182556 
	C1382.842041,477.888123 1372.329224,489.835144 1362.331299,502.198730 
	C1356.539917,509.360474 1351.577637,517.192810 1346.007080,524.010681 
	C1343.978149,522.100891 1342.309692,520.619385 1340.365845,519.763123 
	C1335.637329,517.680298 1330.780762,515.887695 1325.975830,513.978210 
M1403.009766,458.054657 
	C1402.495483,457.875580 1401.981079,457.696503 1400.955444,458.088013 
	C1401.484009,458.250610 1402.012695,458.413239 1403.009766,458.054657 
z"/>
<path fill="#000000" opacity="1.000000" stroke="none" 
	d="
M1427.024658,646.969543 
	C1426.995361,646.930237 1427.053833,647.008850 1427.024658,646.969543 
z"/>
<path fill="#90AAA7" opacity="1.000000" stroke="none" 
	d="
M1338.564209,830.356323 
	C1334.016113,824.352173 1330.569458,818.213562 1325.926758,813.177429 
	C1318.060547,804.644531 1309.439087,796.807861 1300.567627,788.331543 
	C1297.548950,785.027161 1295.097656,782.069763 1292.325684,778.556213 
	C1292.209351,777.746338 1292.614624,777.470642 1292.589600,777.242065 
	C1291.146729,764.055420 1299.936646,756.646057 1309.560425,748.646362 
	C1322.058228,758.783081 1333.446777,769.352966 1345.179077,780.242065 
	C1345.409668,778.139648 1345.616211,776.256714 1346.145386,773.709412 
	C1348.630737,768.349915 1352.566162,766.929932 1357.422974,765.837097 
	C1363.718018,764.420654 1369.669312,761.526184 1375.834961,759.467102 
	C1379.809692,758.139648 1383.903809,757.169434 1387.944336,756.039124 
	C1389.299072,768.786194 1390.653931,781.533325 1392.025391,795.135864 
	C1394.701538,811.408508 1397.361084,826.825562 1399.441895,843.486023 
	C1395.344360,848.581970 1392.531494,853.576355 1386.468750,853.723022 
	C1378.975830,853.904419 1371.465210,855.242310 1364.340210,850.615723 
	C1361.824219,848.981995 1357.507324,850.121643 1354.012695,849.995117 
	C1349.051147,843.569275 1344.089600,837.143433 1338.564209,830.356323 
z"/>
<path fill="#A5C8AF" opacity="1.000000" stroke="none" 
	d="
M1598.078613,659.176758 
	C1596.606812,661.296021 1595.107666,662.586914 1593.676636,663.949280 
	C1591.366699,666.148621 1588.585571,666.495850 1586.676880,664.124023 
	C1582.672729,659.148560 1578.304810,661.195679 1574.180542,663.148254 
	C1570.319214,664.976440 1566.898682,667.713257 1563.167236,669.845520 
	C1560.445312,671.400757 1557.533325,672.623474 1553.015381,674.814209 
	C1552.574219,669.291565 1552.273804,665.529907 1551.984131,659.989868 
	C1551.984985,650.083130 1551.974976,641.954834 1551.964844,633.826477 
	C1551.955444,628.518494 1551.946167,623.210510 1551.943237,617.026428 
	C1556.238403,613.872437 1559.997559,611.523804 1565.526489,614.416016 
	C1572.380005,618.001282 1576.305420,612.702209 1579.749268,606.400208 
	C1583.690063,609.744751 1587.230957,612.749878 1591.802612,616.467285 
	C1593.313843,626.959229 1593.608276,636.754639 1594.433594,646.505188 
	C1594.596191,648.427124 1596.804688,650.175903 1598.069702,652.004517 
	C1598.073730,654.129822 1598.077637,656.255066 1598.078613,659.176758 
z"/>
<path fill="#9ABEAF" opacity="1.000000" stroke="none" 
	d="
M1598.502930,651.311890 
	C1596.804688,650.175903 1594.596191,648.427124 1594.433594,646.505188 
	C1593.608276,636.754639 1593.313843,626.959229 1592.479614,616.604309 
	C1592.827148,610.817566 1593.305176,605.560059 1594.362061,600.421631 
	C1594.692505,598.814941 1596.584595,597.529480 1598.407715,595.887939 
	C1599.057739,598.280518 1599.052124,600.882263 1599.068115,603.483826 
	C1599.116211,611.341125 1599.231445,619.198547 1599.209839,627.055603 
	C1599.188232,634.910339 1599.032959,642.764709 1598.502930,651.311890 
z"/>
<path fill="#94A49F" opacity="1.000000" stroke="none" 
	d="
M1640.289307,906.131104 
	C1641.207275,905.059814 1641.978760,904.711609 1642.750366,904.363403 
	C1644.830933,912.234802 1644.566528,920.021423 1642.020630,927.769714 
	C1638.949463,920.965576 1640.368530,913.840454 1640.289307,906.131104 
z"/>
<path fill="#8C9F9F" opacity="1.000000" stroke="none" 
	d="
M1354.291138,850.705139 
	C1357.507324,850.121643 1361.824219,848.981995 1364.340210,850.615723 
	C1371.465210,855.242310 1378.975830,853.904419 1386.468750,853.723022 
	C1392.531494,853.576355 1395.344360,848.581970 1399.444580,844.347778 
	C1404.591064,858.829041 1409.144165,873.695679 1413.727173,888.553101 
	C1415.773682,895.187744 1417.880127,901.803955 1419.989990,909.189941 
	C1416.270752,912.620239 1412.568115,915.358398 1408.759155,917.940063 
	C1404.234619,921.006897 1399.248535,920.526917 1394.475830,918.951965 
	C1390.428711,917.616455 1386.709106,915.310852 1382.693726,913.849426 
	C1378.447998,912.304077 1374.023804,911.249329 1368.877930,909.961670 
	C1366.701416,903.536438 1365.417358,897.108093 1363.928223,890.727600 
	C1360.866821,877.609924 1357.695679,864.517822 1354.291138,850.705139 
z"/>
<path fill="#030404" opacity="1.000000" stroke="none" 
	d="
M1345.822632,774.373718 
	C1345.616211,776.256714 1345.409668,778.139648 1345.179077,780.242065 
	C1333.446777,769.352966 1322.058228,758.783081 1310.006348,747.947937 
	C1295.617920,737.383057 1281.906006,727.066101 1268.159180,716.795898 
	C1264.726562,714.231445 1261.180908,711.818054 1257.701660,708.103271 
	C1262.114746,697.406677 1266.603638,687.982178 1270.836914,678.444275 
	C1271.693115,676.515442 1271.583740,674.158081 1272.243286,671.374512 
	C1273.609131,669.520996 1275.012329,668.451294 1275.639282,667.037476 
	C1284.860107,646.241821 1293.977661,625.400391 1303.587891,604.072388 
	C1313.952637,584.810913 1323.804932,566.023376 1333.766479,547.293823 
	C1337.802490,539.705200 1342.076538,532.243042 1346.242310,524.723389 
	C1351.577637,517.192810 1356.539917,509.360474 1362.331299,502.198730 
	C1372.329224,489.835144 1382.842041,477.888123 1394.359863,465.480164 
	C1395.844238,466.794495 1396.107666,468.395020 1396.371094,469.995544 
	C1371.000488,522.062256 1355.547119,576.982666 1349.013916,634.474609 
	C1348.714966,637.106384 1348.211426,639.714966 1347.687012,643.968140 
	C1346.922852,656.197632 1346.803223,666.857666 1345.521240,677.376099 
	C1342.497559,702.184326 1343.190063,727.025452 1343.615967,752.074585 
	C1343.077637,752.972351 1343.252563,753.493896 1343.829224,754.727783 
	C1344.459229,761.878052 1345.140991,768.125916 1345.822632,774.373718 
z"/>
<path fill="#849294" opacity="1.000000" stroke="none" 
	d="
M1271.919556,671.998291 
	C1271.583740,674.158081 1271.693115,676.515442 1270.836914,678.444275 
	C1266.603638,687.982178 1262.114746,697.406677 1257.303955,707.514282 
	C1248.134644,703.835205 1239.377319,699.513062 1230.216064,694.633179 
	C1233.691284,685.242310 1237.570557,676.409180 1241.719604,666.923828 
	C1242.488281,665.807434 1242.987305,665.343323 1244.538086,664.494751 
	C1254.366455,666.739685 1263.142944,669.369019 1271.919556,671.998291 
z"/>
<path fill="#95B3A9" opacity="1.000000" stroke="none" 
	d="
M1343.876099,751.888428 
	C1343.190063,727.025452 1342.497559,702.184326 1345.521240,677.376099 
	C1346.803223,666.857666 1346.922852,656.197632 1347.872070,644.787720 
	C1350.866089,641.492493 1353.558960,639.011475 1356.701416,636.116272 
	C1357.055298,637.321655 1357.834839,638.973572 1357.987427,640.681458 
	C1358.476440,646.157532 1360.984985,648.450745 1366.560425,646.894531 
	C1370.530396,645.786438 1373.183838,647.482178 1373.727417,651.482239 
	C1374.772339,659.170166 1379.797729,664.314331 1385.318848,669.811279 
	C1385.979126,677.390686 1385.988525,684.775085 1385.996582,693.080933 
	C1385.995483,707.896057 1385.808716,721.793396 1386.081055,735.681702 
	C1386.203247,741.913208 1387.244385,748.126709 1387.906494,755.193726 
	C1383.903809,757.169434 1379.809692,758.139648 1375.834961,759.467102 
	C1369.669312,761.526184 1363.718018,764.420654 1357.422974,765.837097 
	C1352.566162,766.929932 1348.630737,768.349915 1346.145386,773.709412 
	C1345.140991,768.125916 1344.459229,761.878052 1343.897217,754.245483 
	C1344.017090,752.860779 1343.876099,751.888428 1343.876099,751.888428 
z"/>
<path fill="#90AAA7" opacity="1.000000" stroke="none" 
	d="
M1346.007080,524.010681 
	C1342.076538,532.243042 1337.802490,539.705200 1333.766479,547.293823 
	C1323.804932,566.023376 1313.952637,584.810913 1302.900146,603.701294 
	C1293.582886,600.648193 1288.967163,591.896057 1279.995239,589.991455 
	C1290.836670,570.836182 1301.540894,551.601196 1312.597778,532.571106 
	C1316.211914,526.350525 1320.743286,520.662903 1325.415527,514.354858 
	C1330.780762,515.887695 1335.637329,517.680298 1340.365845,519.763123 
	C1342.309692,520.619385 1343.978149,522.100891 1346.007080,524.010681 
z"/>
<path fill="#8C9F9F" opacity="1.000000" stroke="none" 
	d="
M1279.538696,590.024780 
	C1288.967163,591.896057 1293.582886,600.648193 1302.431763,604.198608 
	C1293.977661,625.400391 1284.860107,646.241821 1275.639282,667.037476 
	C1275.012329,668.451294 1273.609131,669.520996 1272.243286,671.374512 
	C1263.142944,669.369019 1254.366455,666.739685 1244.827393,664.074463 
	C1247.312622,656.852478 1250.389282,649.583069 1253.843750,642.497803 
	C1260.933350,627.956360 1268.264771,613.532898 1275.393311,599.010071 
	C1276.542358,596.669373 1277.157715,594.066711 1278.094238,590.850952 
	C1278.168579,590.116638 1279.082153,590.058105 1279.538696,590.024780 
z"/>
<path fill="#9FAEA4" opacity="1.000000" stroke="none" 
	d="
M1648.879028,795.003418 
	C1648.594727,794.775635 1648.365601,794.448792 1648.136597,794.122070 
	C1648.306641,794.188477 1648.476807,794.254883 1648.857788,794.521606 
	C1649.068726,794.721863 1648.934326,794.904419 1648.879028,795.003418 
z"/>
<path fill="#AED2B2" opacity="1.000000" stroke="none" 
	d="
M1551.499023,634.517578 
	C1551.974976,641.954834 1551.984985,650.083130 1551.993652,659.148071 
	C1548.493408,651.915222 1549.693726,643.564636 1551.499023,634.517578 
z"/>
<path fill="#7A878A" opacity="1.000000" stroke="none" 
	d="
M1396.879639,469.610901 
	C1396.107666,468.395020 1395.844238,466.794495 1394.792725,464.896362 
	C1395.463989,463.554932 1396.923218,462.511108 1398.382446,461.467285 
	C1398.902100,461.841766 1399.421875,462.216248 1399.941528,462.590698 
	C1399.090454,464.802551 1398.239380,467.014404 1396.879639,469.610901 
z"/>
<path fill="#7A878A" opacity="1.000000" stroke="none" 
	d="
M1401.466797,457.517456 
	C1401.981079,457.696503 1402.495483,457.875580 1402.508179,458.049316 
	C1402.006592,458.043976 1401.466797,457.517456 1401.466797,457.517456 
z"/>
<path fill="#7A878A" opacity="1.000000" stroke="none" 
	d="
M1402.273926,458.309906 
	C1402.012695,458.413239 1401.484009,458.250610 1401.211182,457.802734 
	C1401.466797,457.517456 1402.006592,458.043976 1402.273926,458.309906 
z"/>
<path fill="#8C9B98" opacity="1.000000" stroke="none" 
	d="
M1343.615967,752.074585 
	C1343.876099,751.888428 1344.017090,752.860779 1343.948975,753.343079 
	C1343.252563,753.493896 1343.077637,752.972351 1343.615967,752.074585 
z"/>
</svg>